<svg xmlns="http://www.w3.org/2000/svg" width="1440" height="872" viewBox="0 0 1440 872">
<rect x="0" y="0" width="1440" height="872" fill="#ffffff" stroke="#bfbfbf" stroke-width="2"/>
<rect x="0" y="0" width="256" height="872" fill="none" stroke="#c7c7c7" stroke-width="1"/>
<rect x="368" y="554" width="960" height="207" fill="none" stroke="#c7c7c7" stroke-width="1"/>
<rect x="368" y="140" width="960" height="103" fill="none" stroke="#c7c7c7" stroke-width="1"/>
<rect x="1008" y="319" width="320" height="159" fill="none" stroke="#c7c7c7" stroke-width="1"/>
<rect x="0" y="680" width="256" height="193" fill="none" stroke="#c7c7c7" stroke-width="1"/>
<rect x="368" y="319" width="195" height="159" fill="none" stroke="#c7c7c7" stroke-width="1"/>
<rect x="579" y="319" width="195" height="159" fill="none" stroke="#c7c7c7" stroke-width="1"/>
<rect x="789" y="319" width="195" height="159" fill="none" stroke="#c7c7c7" stroke-width="1"/>
<rect x="0" y="0" width="256" height="102" fill="none" stroke="#c7c7c7" stroke-width="1"/>
<rect x="1116" y="606" width="190" height="137" fill="none" stroke="#c7c7c7" stroke-width="1"/>
<text x="422" y="199" font-family="Noto Sans KR, Apple SD Gothic Neo, sans-serif" font-size="22" fill="#595959">세션을 시작해 주세요</text>
<rect x="390" y="606" width="95" height="137" fill="none" stroke="#c7c7c7" stroke-width="1"/>
<rect x="493" y="606" width="95" height="137" fill="none" stroke="#c7c7c7" stroke-width="1"/>
<rect x="595" y="606" width="95" height="137" fill="none" stroke="#c7c7c7" stroke-width="1"/>
<rect x="698" y="606" width="95" height="137" fill="none" stroke="#c7c7c7" stroke-width="1"/>
<rect x="800" y="606" width="95" height="137" fill="none" stroke="#c7c7c7" stroke-width="1"/>
<rect x="903" y="606" width="95" height="137" fill="none" stroke="#c7c7c7" stroke-width="1"/>
<rect x="1005" y="606" width="95" height="137" fill="none" stroke="#c7c7c7" stroke-width="1"/>
<rect x="12" y="803" width="232" height="54" rx="2" fill="#ededed" stroke="#999999" stroke-width="1"/>
<text x="128" y="835" text-anchor="middle" font-family="Noto Sans KR, Apple SD Gothic Neo, sans-serif" font-size="14" fill="#666666">세션 시작</text>
<rect x="1030" y="415" width="276" height="45" rx="2" fill="#ededed" stroke="#999999" stroke-width="1"/>
<text x="1168" y="443" text-anchor="middle" font-family="Noto Sans KR, Apple SD Gothic Neo, sans-serif" font-size="14" fill="#666666">팀 대시보드 보기</text>
<rect x="16" y="16" width="180" height="68" rx="2" fill="#ededed" stroke="#999999" stroke-width="1"/>
<text x="106" y="55" text-anchor="middle" font-family="Noto Sans KR, Apple SD Gothic Neo, sans-serif" font-size="14" fill="#666666">토끼와 거북목</text>
<rect x="12" y="122" width="232" height="51" rx="2" fill="#ededed" stroke="#999999" stroke-width="1"/>
<text x="128" y="153" text-anchor="middle" font-family="Noto Sans KR, Apple SD Gothic Neo, sans-serif" font-size="14" fill="#666666">홈</text>
<rect x="12" y="179" width="232" height="51" rx="2" fill="#ededed" stroke="#999999" stroke-width="1"/>
<text x="128" y="210" text-anchor="middle" font-family="Noto Sans KR, Apple SD Gothic Neo, sans-serif" font-size="14" fill="#666666">내 기록</text>
<rect x="12" y="236" width="232" height="51" rx="2" fill="#ededed" stroke="#999999" stroke-width="1"/>
<text x="128" y="267" text-anchor="middle" font-family="Noto Sans KR, Apple SD Gothic Neo, sans-serif" font-size="14" fill="#666666">팀 대시보드</text>
<rect x="12" y="293" width="232" height="51" rx="2" fill="#ededed" stroke="#999999" stroke-width="1"/>
<text x="128" y="324" text-anchor="middle" font-family="Noto Sans KR, Apple SD Gothic Neo, sans-serif" font-size="14" fill="#666666">상점</text>
<rect x="12" y="350" width="232" height="51" rx="2" fill="#ededed" stroke="#999999" stroke-width="1"/>
<text x="128" y="381" text-anchor="middle" font-family="Noto Sans KR, Apple SD Gothic Neo, sans-serif" font-size="14" fill="#666666">설정</text>
<rect x="12" y="698" width="232" height="46" rx="2" fill="#ededed" stroke="#999999" stroke-width="1"/>
<text x="128" y="726" text-anchor="middle" font-family="Noto Sans KR, Apple SD Gothic Neo, sans-serif" font-size="14" fill="#666666">로그아웃</text>
<rect x="12" y="747" width="232" height="46" rx="2" fill="#ededed" stroke="#999999" stroke-width="1"/>
<text x="128" y="775" text-anchor="middle" font-family="Noto Sans KR, Apple SD Gothic Neo, sans-serif" font-size="14" fill="#666666">앱 종료</text>
<rect x="1149" y="162" width="157" height="59" rx="2" fill="#ededed" stroke="#999999" stroke-width="1"/>
<text x="1228" y="197" text-anchor="middle" font-family="Noto Sans KR, Apple SD Gothic Neo, sans-serif" font-size="14" fill="#666666">세션 시작</text>
<rect x="368" y="24" width="96" height="96" fill="#e0e0e0" stroke="#b3b3b3" stroke-width="1"/>
<text x="1030" y="361" font-family="Noto Sans KR, Apple SD Gothic Neo, sans-serif" font-size="22" fill="#595959">토끼와 거북목 개발팀</text>
<rect x="1171" y="620" width="80" height="80" fill="#e0e0e0" stroke="#b3b3b3" stroke-width="1"/>
<text x="484" y="60" font-family="Noto Sans KR, Apple SD Gothic Neo, sans-serif" font-size="26" fill="#595959">이도삼도</text>
<text x="386" y="360" font-family="Noto Sans KR, Apple SD Gothic Neo, sans-serif" font-size="22" fill="#595959">바른 자세</text>
<text x="597" y="360" font-family="Noto Sans KR, Apple SD Gothic Neo, sans-serif" font-size="22" fill="#595959">스트레칭</text>
<text x="807" y="360" font-family="Noto Sans KR, Apple SD Gothic Neo, sans-serif" font-size="22" fill="#595959">졸음 알림</text>
<rect x="388" y="279" width="86" height="11" rx="2" fill="#d9d9d9"/>
<rect x="1170" y="713" width="81" height="10" rx="2" fill="#d9d9d9"/>
<rect x="388" y="514" width="70" height="11" rx="2" fill="#d9d9d9"/>
<rect x="204" y="32" width="36" height="36" rx="2" fill="#ededed" stroke="#999999" stroke-width="1"/>
<text x="386" y="455" font-family="Noto Sans KR, Apple SD Gothic Neo, sans-serif" font-size="26" fill="#595959">20</text>
<rect x="1261" y="573" width="45" height="21" rx="2" fill="#ededed" stroke="#999999" stroke-width="1"/>
<rect x="1028" y="279" width="38" height="11" rx="2" fill="#d9d9d9"/>
<text x="416" y="591" font-family="Noto Sans KR, Apple SD Gothic Neo, sans-serif" font-size="22" fill="#595959">5일</text>
<rect x="423" y="657" width="28" height="11" rx="2" fill="#d9d9d9"/>
<rect x="526" y="657" width="28" height="11" rx="2" fill="#d9d9d9"/>
<rect x="628" y="657" width="28" height="11" rx="2" fill="#d9d9d9"/>
<rect x="731" y="657" width="28" height="11" rx="2" fill="#d9d9d9"/>
<rect x="834" y="657" width="28" height="11" rx="2" fill="#d9d9d9"/>
<rect x="936" y="657" width="28" height="11" rx="2" fill="#d9d9d9"/>
<rect x="1039" y="657" width="28" height="11" rx="2" fill="#d9d9d9"/>
<rect x="1203" y="383" width="42" height="10" rx="2" fill="#d9d9d9"/>
<text x="807" y="455" font-family="Noto Sans KR, Apple SD Gothic Neo, sans-serif" font-size="26" fill="#595959">0</text>
<text x="597" y="455" font-family="Noto Sans KR, Apple SD Gothic Neo, sans-serif" font-size="26" fill="#595959">1</text>
<rect x="390" y="574" width="18" height="18" fill="#e0e0e0" stroke="#b3b3b3" stroke-width="1"/>
<rect x="430" y="625" width="14" height="10" rx="2" fill="#d9d9d9"/>
<rect x="533" y="625" width="14" height="10" rx="2" fill="#d9d9d9"/>
<rect x="635" y="625" width="14" height="10" rx="2" fill="#d9d9d9"/>
<rect x="738" y="625" width="14" height="10" rx="2" fill="#d9d9d9"/>
<rect x="841" y="625" width="14" height="10" rx="2" fill="#d9d9d9"/>
<rect x="943" y="625" width="14" height="10" rx="2" fill="#d9d9d9"/>
<rect x="1046" y="625" width="14" height="10" rx="2" fill="#d9d9d9"/>
<rect x="425" y="687" width="24" height="8" rx="2" fill="#d9d9d9"/>
<rect x="528" y="687" width="24" height="8" rx="2" fill="#d9d9d9"/>
<rect x="630" y="687" width="24" height="8" rx="2" fill="#d9d9d9"/>
<rect x="733" y="687" width="24" height="8" rx="2" fill="#d9d9d9"/>
<rect x="836" y="687" width="24" height="8" rx="2" fill="#d9d9d9"/>
<rect x="938" y="687" width="24" height="8" rx="2" fill="#d9d9d9"/>
<rect x="1041" y="687" width="24" height="8" rx="2" fill="#d9d9d9"/>
<rect x="390" y="184" width="16" height="16" fill="none" stroke="#c7c7c7" stroke-width="1"/>
<rect x="425" y="446" width="14" height="10" rx="2" fill="#d9d9d9"/>
<rect x="610" y="446" width="14" height="10" rx="2" fill="#d9d9d9"/>
<rect x="828" y="446" width="14" height="10" rx="2" fill="#d9d9d9"/>
<rect x="368" y="279" width="12" height="12" fill="none" stroke="#c7c7c7" stroke-width="1"/>
<rect x="1008" y="279" width="12" height="12" fill="none" stroke="#c7c7c7" stroke-width="1"/>
<rect x="368" y="514" width="12" height="12" fill="none" stroke="#c7c7c7" stroke-width="1"/>
</svg>